<?xml version="1.0" encoding="utf-8"?>
<!-- Generator: Adobe Illustrator 27.2.0, SVG Export Plug-In . SVG Version: 6.00 Build 0)  -->
<svg version="1.1" id="Warstwa_1" xmlns="http://www.w3.org/2000/svg" xmlns:xlink="http://www.w3.org/1999/xlink" x="0px" y="0px"
	 viewBox="0 0 306.9 306.9" style="enable-background:new 0 0 306.9 306.9;" xml:space="preserve">
<g>
	<path style="fill:#F8D246;" d="M62.7,79.9h25.1v9H72.4v16.4h11.2v9H72.4V133h15.5v9.4H62.7V79.9z"/>
	<path style="fill:#F8D246;" d="M100.6,79.9l5.8,37c0.5,3.4,1.1,7.6,1.1,13v1.2c0.2-6.4,0.6-11.1,1.1-14.2l5.6-37h9.5l-11.1,62.5
		h-10.1L91.2,79.9H100.6z"/>
	<path style="fill:#F8D246;" d="M129.3,79.9h25.1v9H139v16.4h11.2v9H139V133h15.5v9.4h-25.1V79.9z"/>
	<path style="fill:#F8D246;" d="M171.5,142.4h-9.7V79.9H176c10.4,0,15.1,5.2,15.1,18.1c0,7.4-1.6,12.2-6.1,15.4l7.1,29h-10
		l-5.9-26.3h-4.6V142.4z M171.5,107h3.8c4.7,0,5.9-2.6,5.9-9.5c0-6.6-1.6-8.7-6.3-8.7h-3.5V107z"/>
	<path style="fill:#F8D246;" d="M202.5,79.9l6.3,25h0.6l5.9-25h9.8l-11.2,36.6v25.9h-9.7v-24.8l-11.5-37.7H202.5z"/>
	<path style="fill:#F8D246;" d="M72,158.7l4.2,37c0.4,3.1,0.6,6.3,0.6,9.8v1.2c0.4-6.5,0.5-10.5,0.8-12.3l4.8-35.8h8.2l5.1,37
		c0.4,3.1,0.6,6.8,0.6,11.1c0.3-5.2,0.4-9.3,0.8-12.3l4-35.8h9.1l-9.7,62.5h-8.1l-5.3-36.3c-0.4-2.5-0.6-6.2-0.6-11.1
		c-0.4,6.8-0.6,10.9-0.8,12.3l-5.1,35.1h-8.1l-9.8-62.5H72z"/>
	<path style="fill:#F8D246;" d="M125.5,158.7v25.5h9.6v-25.5h9.6v62.5h-9.6v-28h-9.6v28H116v-62.5H125.5z"/>
	<path style="fill:#F8D246;" d="M154.7,158.7h25.1v9h-15.5v16.4h11.2v9h-11.2v18.7h15.5v9.4h-25.1V158.7z"/>
	<path style="fill:#F8D246;" d="M196.9,221.2h-9.7v-62.5h14.2c10.4,0,15.1,5.2,15.1,18.1c0,7.4-1.6,12.2-6.1,15.4l7.1,29h-10
		l-5.9-26.3h-4.6V221.2z M196.9,185.8h3.8c4.7,0,5.9-2.6,5.9-9.5c0-6.6-1.6-8.7-6.3-8.7h-3.5V185.8z"/>
	<path style="fill:#F8D246;" d="M224.2,158.7h25.1v9h-15.5v16.4H245v9h-11.2v18.7h15.5v9.4h-25.1V158.7z"/>
</g>
<g>
	<path style="fill:#F8D246;" d="M233.9,80h8.5v2.6h-2.9v15.3h-2.8V82.5h-2.9V80z"/>
	<path style="fill:#F8D246;" d="M243.6,80h3.7l1.8,9.9c0.2,0.8,0.2,1.7,0.2,2.7c0-0.9,0.1-1.8,0.3-2.7l1.7-9.9h3.7v17.9h-2.6V86.5
		c0-0.5,0.1-1.5,0.2-3.1c-0.2,1.2-0.3,2-0.4,2.5l-2.2,11.9h-1.4l-2.1-11.9c-0.3-1.4-0.4-2.3-0.4-2.5c0.1,1.3,0.2,2.4,0.2,3.1v11.3
		h-2.6V80z"/>
</g>
<path style="fill:none;stroke:#F8D246;stroke-width:6.001;stroke-miterlimit:10;" d="M283.9,303.9H23c-11,0-20-9-20-20V24.4
	C3,12.6,12.6,3,24.4,3h259.5c11,0,20,9,20,20v260.9C303.9,294.9,294.9,303.9,283.9,303.9z"/>
</svg>
