<?xml version="1.0" encoding="utf-8"?>
<!-- Generator: Adobe Illustrator 27.2.0, SVG Export Plug-In . SVG Version: 6.00 Build 0)  -->
<svg version="1.1" id="Tryb_izolacji" xmlns="http://www.w3.org/2000/svg" xmlns:xlink="http://www.w3.org/1999/xlink" x="0px"
	 y="0px" viewBox="0 0 60 60" style="enable-background:new 0 0 60 60;" xml:space="preserve">
<g id="XMLID_119_">
	<path id="XMLID_144_" style="fill:#FF1E5A;" d="M57.3,31.7c-0.1-0.3-0.1-0.7-0.3-0.9c0,0,0,0,0,0c-0.3-0.4-0.6-0.8-1-1.1
		c-0.7-0.5-1.5-1-2.3-1.6C41.2,19.5,28.1,11.9,14.4,5.4c-0.1-0.1-0.2-0.1-0.3-0.1c0,0-0.1,0-0.1-0.1c-0.3-0.1-0.6-0.2-0.9-0.2
		c0,0-0.1,0-0.1,0c-0.1,0-0.1,0-0.2,0c-0.1,0-0.2,0-0.3,0c0,0-0.1,0-0.1,0c0,0,0,0-0.1,0c0,0-0.1,0-0.1,0c0,0,0,0,0,0
		c0,0-0.1,0-0.1,0c0,0-0.1,0-0.1,0c-0.7,0.2-1.3,0.6-1.8,1.1l0,0C9.5,6.8,9.1,7.5,9.1,8.4c-0.7,8-1.4,16.1-1.4,24.1
		c0,8,0.7,16.1,1.4,24.1c0.1,0.9,0.4,1.6,0.9,2.2l0,0c0.5,0.5,1.1,0.9,1.8,1.1c0,0,0.1,0,0.1,0c0,0,0.1,0,0.1,0c0,0,0,0,0,0
		c0,0,0.1,0,0.1,0c0,0,0,0,0.1,0c0,0,0.1,0,0.1,0c0.1,0,0.2,0,0.3,0c0.1,0,0.1,0,0.2,0c0,0,0.1,0,0.1,0c0.3,0,0.6-0.1,0.9-0.2
		c0,0,0.1,0,0.1-0.1c0.1,0,0.2-0.1,0.3-0.1c13.7-6.5,26.8-14.1,39.3-22.7c0.8-0.5,1.5-1,2.3-1.6c0.4-0.3,0.8-0.7,1-1.1c0,0,0,0,0,0
		c0.2-0.3,0.2-0.6,0.3-0.9c0-0.3,0-0.5,0-0.8C57.3,32.2,57.3,32,57.3,31.7z"/>
	<path id="XMLID_242_" style="fill:#1EDEE3;" d="M52.3,27.5c0,0.3,0,0.5,0,0.8c0,0.3-0.1,0.7-0.3,0.9c0,0,0,0,0,0
		c-0.3,0.4-0.6,0.8-1,1.1c-0.7,0.5-1.5,1-2.3,1.6C36.2,40.5,23,48.1,9.3,54.6c-0.1,0.1-0.2,0.1-0.3,0.1c0,0-0.1,0-0.1,0.1
		c0,0,0,0,0,0C8.6,54.9,8.3,54.9,8,55c0,0-0.1,0-0.1,0c-0.1,0-0.1,0-0.2,0c-0.1,0-0.2,0-0.3,0c-0.1,0-0.1,0-0.1,0c0,0,0,0-0.1,0
		c0,0-0.1,0-0.1,0c0,0,0,0,0,0c0,0-0.1,0-0.1,0c0,0-0.1,0-0.1,0c-0.7-0.2-1.3-0.6-1.8-1.1l0,0c-0.5-0.6-0.9-1.3-0.9-2.2
		c-0.7-8-1.4-16.1-1.4-24.1S3.3,11.4,4,3.4c0.1-0.9,0.4-1.6,0.9-2.2l0,0C5.4,0.7,6,0.3,6.7,0.1c0,0,0.1,0,0.1,0c0,0,0.1,0,0.1,0
		c0,0,0,0,0,0c0,0,0.1,0,0.1,0c0,0,0,0,0.1,0c0,0,0.1,0,0.1,0c0.1,0,0.2,0,0.3,0c0.1,0,0.1,0,0.2,0C7.9,0,8,0,8,0
		c0.3,0,0.6,0.1,0.9,0.2c0,0,0.1,0,0.1,0.1c0.1,0,0.2,0.1,0.3,0.1C23,6.9,36.2,14.5,48.7,23.1c0.8,0.5,1.5,1,2.3,1.6
		c0.4,0.3,0.8,0.7,1,1.1v0c0.2,0.3,0.2,0.6,0.3,0.9c0,0.1,0,0.3,0,0.4C52.3,27.3,52.3,27.4,52.3,27.5z"/>
	<path id="XMLID_25_" style="fill:#323235;" d="M52.3,27.5c0,0.3,0,0.5,0,0.8c0,0.3-0.1,0.7-0.3,0.9c0,0,0,0,0,0
		c-0.3,0.4-0.6,0.8-1,1.1c-0.7,0.5-1.5,1-2.3,1.6C36.2,40.5,23,48.1,9.3,54.6c-0.1,0.1-0.2,0.1-0.3,0.1c0,0-0.1,0-0.1,0.1
		c-0.6-7.4-1.2-14.8-1.2-22.3c0-8.1,0.7-16.1,1.4-24.1C9.1,7.5,9.5,6.8,10,6.2h0c0.5-0.5,1.1-0.9,1.8-1.1c0,0,0.1,0,0.1,0
		c0,0,0.1,0,0.1,0c0,0,0,0,0,0c0,0,0.1,0,0.1,0c0,0,0,0,0.1,0c0,0,0.1,0,0.1,0c0.1,0,0.2,0,0.3,0c0.1,0,0.1,0,0.2,0c0,0,0.1,0,0.1,0
		c0.3,0,0.6,0.1,0.9,0.2c0,0,0.1,0,0.1,0.1c0.1,0,0.2,0.1,0.3,0.1C27.5,11.7,40.2,19,52.3,27.1C52.3,27.3,52.3,27.4,52.3,27.5z"/>
</g>
</svg>
