<?xml version="1.0" encoding="utf-8"?>
<!-- Generator: Adobe Illustrator 27.2.0, SVG Export Plug-In . SVG Version: 6.00 Build 0)  -->
<svg version="1.1" id="Icon" xmlns="http://www.w3.org/2000/svg" xmlns:xlink="http://www.w3.org/1999/xlink" x="0px" y="0px"
	 viewBox="0 0 100 100" style="enable-background:new 0 0 100 100;" xml:space="preserve">
<path style="fill:#444444;" d="M10.3,30.6c-1.4,1.8-3.1,3.4-4.5,5.2c-0.7,0.8-1.3,1.6-1.8,2.5c-0.5,0.8-1.1,1.8-1.1,2.7
	c0,0.1,0.2,0.2,0.3,0.1c0.6-0.8,0.9-1.8,1.4-2.6c0.6-1,1.3-1.9,2-2.8c1.3-1.6,2.8-3.2,4-4.9C10.7,30.6,10.4,30.5,10.3,30.6z
	 M64.3,82.8c-0.8,1.5-1.6,2.9-2.3,4.4c-0.4,0.9-1.1,2.2-0.8,3.3c0.1,0.4,0.8,0.3,0.7-0.1c0-1.1,0.4-2.1,0.8-3.1
	c0.6-1.4,1.3-2.7,2-4.1C64.9,82.8,64.5,82.5,64.3,82.8z M6.7,52C7,51.3,7.2,50.7,7.6,50c0.5-0.8,1-1.5,1.5-2.3
	c0.5-0.8,0.9-1.7,1.3-2.5c0.4-0.6,0.8-1.2,0.8-2c0-0.3-0.4-0.3-0.5-0.1c-0.1,0.8-0.9,1.6-1.3,2.3C9,46.3,8.5,47.2,8,48
	c-0.8,1.2-2.3,2.9-2.2,4.5c0,0.2,0.3,0.5,0.5,0.3C6.6,52.6,6.8,52.4,6.7,52C6.7,52.1,6.7,52.1,6.7,52z M12.2,46.2
	c-0.8,1.4-1.5,2.8-2.3,4.2c-0.8,1.4-1.7,2.8-2.5,4.2c-0.3,0.5,0.4,0.8,0.7,0.4c1.9-2.5,3.1-5.7,4.5-8.6
	C12.8,46.2,12.4,45.9,12.2,46.2z M8.7,43.2c0.7-1,1.5-1.8,1.8-3c0.1-0.3-0.4-0.4-0.5-0.1c-0.4,1.3-1.7,2.6-2.5,3.6
	c-0.8,1-1.6,2.1-2.3,3.1c-0.4,0.6-2.6,3.1-1.3,3.6c0.1,0,0.2,0,0.2-0.1c0.2-1.4,1.3-2.6,2.1-3.7C7,45.5,7.8,44.3,8.7,43.2z
	 M93.4,3.8C89.8,1,84.7-0.3,80.1,0c-2.5,0.2-4.9,0.7-7,2.1c-0.2,0.1-0.3,0.2-0.5,0.4c-0.8,0.5-1.5,1.1-2.1,1.8
	c-1.4,1.7-2.8,3.2-4.1,5c-2.4,3.5-3.7,7.8-2.8,12.1c0.2,1.1,0.6,2.1,1.1,3.1c-0.4,0.2-0.9,0.5-1.4,0.6c-1.2,0.4-2.2,0.9-3.3,1.4
	c-1.2,0.6-2.5,1.1-3.8,1.7c-1.5,0.7-3,1.4-4.6,2.1c-1.5,0.7-3,1.5-4.5,2c-1.5,0.5-3,1.1-4.5,1.7c-1.5,0.6-3,1.3-4.5,1.9
	c-0.6,0.3-1.3,0.6-1.9,0.8c-0.3,0.1-0.7,0.3-1,0.4c-1.1-2.7-2.8-5.1-5-6.9c-3.6-2.9-8.7-4.1-13.3-3.8c-2.5,0.2-4.9,0.7-7,2.1
	c-0.2,0.1-0.3,0.2-0.5,0.4c-0.8,0.5-1.5,1.1-2.1,1.8c-1.4,1.7-2.8,3.2-4.1,5c-2.4,3.5-3.7,7.8-2.8,12.1c1.7,7.6,9.8,13.9,17.4,14.6
	c6.1,0.6,12-3,15.5-8c0.4,0.3,0.9,0.7,1.4,1c1.2,0.8,2.4,1.5,3.6,2.2c2.5,1.6,4.6,3.5,6.8,5.5c2.1,1.9,4.4,3.6,6.7,5.3
	c2,1.5,3.9,3.4,6.4,4.1c1.3,0.4,1.9-1.7,0.6-2c-2.4-0.7-4.5-2.8-6.4-4.3c-1.1-0.9-2.2-1.7-3.3-2.5C47.8,63,46.7,62,45.6,61
	c-2.1-1.9-4.2-3.6-6.6-5c-1.6-1-3.2-1.9-4.9-2.6c0.7-1.1,1.2-2.3,1.6-3.4c1.2-3.7,1.2-7.8,0-11.5c0.9,0,2-0.5,2.8-0.7
	c1.7-0.6,3.3-1.3,5-1.9c1.5-0.6,3.1-1.1,4.7-1.7c1.6-0.6,3.2-1.4,4.8-2.2c3-1.3,6-2.6,8.9-4c1.1-0.5,2.2-0.8,3.3-1.3
	c0.2-0.1,0.4-0.2,0.5-0.3c3.3,5.3,9.4,9.1,15.3,9.7c7.8,0.8,15.4-5.4,17.8-12.6C101.2,16.7,99.1,8.3,93.4,3.8z M34.2,46.5
	c-0.4,2.8-1.6,5.5-3.5,7.7c0-0.1,0-0.3,0-0.4c0-0.5-0.8-0.5-0.8,0c0,0.6-0.3,1.2-0.5,1.8c-0.6,0.6-1.3,1.2-2.1,1.8
	c0.3-0.7,0.7-1.5,0.7-2.3c0-0.5-0.7-0.5-0.7,0c-0.1,1.2-1,2.1-1.3,3.2c-0.8,0.5-1.6,0.9-2.5,1.2c0.2-0.9,0.7-1.7,1-2.6
	c0.2-0.4-0.5-0.6-0.7-0.2c-0.3,0.9-1.1,2-1.3,3.1c-0.5,0.2-1.1,0.3-1.7,0.4c-0.3,0-0.6,0.1-0.9,0.1c0,0-0.1,0-0.1,0
	c0.4-1.5,1.6-2.8,1.5-4.4c0-0.5-0.7-0.5-0.7,0c0.1,1.6-1.5,2.9-1.8,4.4c-0.8,0-1.5-0.1-2.3-0.3c0-0.1,0-0.1-0.1-0.1
	c0.2-0.8,0.5-1.5,0.8-2.2c0.5-1.2,0.9-2.3,1.1-3.6c0.1-0.4-0.6-0.6-0.6-0.2c-0.2,1.4-0.9,2.6-1.4,4c-0.2,0.6-0.5,1.3-0.7,1.9
	c-0.8-0.2-1.6-0.5-2.4-0.9c0,0,0.1-0.1,0.1-0.1c0.1-0.2,0.2-0.3,0.2-0.5c0,0,0-0.1,0-0.1c0.3-1,0.7-2,1.2-3c0.5-1,0.9-2.1,0.9-3.2
	c0-0.4-0.6-0.4-0.7,0c-0.1,1.4-0.8,2.5-1.4,3.7c-0.5,0.9-1.1,1.9-1.1,3c-0.5-0.2-1-0.5-1.5-0.8c-0.2-0.1-0.4-0.3-0.6-0.4
	c0.1,0,0.1-0.1,0.1-0.2c0.8-2.7,2.5-5.1,3.2-7.8c0.1-0.4-0.5-0.5-0.6-0.2c-0.8,2.7-3,4.9-3.4,7.7c0,0,0,0,0,0
	c-2.6-1.7-4.8-4-6.3-6.7c-0.4-0.8-0.8-1.6-1-2.4c0,0,0.1-0.1,0.1-0.1c0.2-1.5,1.6-2.7,2.5-3.9c1.7-2.2,3.6-4.3,5.1-6.6
	C10.4,37,10,36.8,9.9,37c-1.7,2.5-3.8,4.7-5.8,7c-0.3,0.3-1.3,1.5-1.8,2.4c-0.1-0.4-0.1-0.8-0.1-1.2c0.4-0.7,0.7-1.7,1.1-2.4
	c0.6-1.1,1.4-2.1,2.1-3.1c1.6-2.2,3.1-4.5,5-6.4c0.2-0.2-0.1-0.5-0.3-0.3c-1.9,1.9-3.5,4.1-5.2,6.3c-0.8,1-1.6,2-2.2,3.2
	c-0.2,0.3-0.3,0.6-0.5,0.9c0.1-1.7,0.6-3.5,1.5-5.1c1-2,2.4-3.9,3.9-5.6c0.1-0.1,0.1-0.1,0.2-0.2c0.8-0.6,1.6-1.3,2.5-1.9
	c1.6-1.1,3.4-1.6,5.3-1.8c3.8-0.5,8.1,0.1,11.5,2C32.4,33.7,35.1,40.4,34.2,46.5z M97.4,20c-0.2,1.4-0.6,2.8-1.2,4.1
	c-0.2,0-0.5,0.1-0.5,0.4c0,0.2,0,0.4-0.1,0.6c-0.6,1-1.2,2-2,2.9c0.2-1,0.6-2,0.8-3c0.1-0.5-0.6-0.7-0.7-0.2c-0.2,1.3-1,2.5-1,3.8
	c0,0.1,0.1,0.2,0.1,0.3c-0.4,0.4-0.7,0.7-1.1,1.1c0.1-0.1,0.1-0.2,0.2-0.4c0.1-0.2-0.1-0.4-0.3-0.3c-0.1,0-0.1,0-0.2,0.1
	c-0.4-1,0.3-2.4,0.5-3.4c0.1-0.6-0.7-0.8-0.8-0.2c-0.3,1.4-1.3,3.2-0.3,4.5c0.1,0.2,0.4,0.2,0.5,0.1c-0.8,0.6-1.7,1.2-2.5,1.7
	c0.1-0.3,0.2-0.5,0.2-0.7c0-0.2-0.3-0.3-0.4-0.2c-0.2,0.2-0.4,0.5-0.6,0.7c0-0.2,0-0.4,0-0.5c0.1-1,0.5-2,0.6-3.1
	c0.1-0.5-0.7-0.8-0.8-0.2c-0.2,0.9-0.5,1.8-0.7,2.7c-0.1,0.6-0.3,1.4,0.1,2c-0.7,0.3-1.4,0.5-2.1,0.6c0.3-0.2,0.3-0.4,0.4-0.8
	c0-0.1,0-0.2-0.1-0.2c0.2-1.8,0.6-3.5,1-5.2c0.1-0.5-0.7-0.7-0.8-0.2c-0.4,2-1.2,3.9-1.2,6c0,0.2,0.2,0.4,0.4,0.5
	c-0.2,0-0.4,0.1-0.6,0.1c-0.5,0.1-1,0.1-1.5,0.1c0.1-0.2,0.2-0.4,0.2-0.7c0-0.2-0.2-0.3-0.4-0.2c-0.1,0-0.2,0.1-0.2,0.2
	c-0.1-0.7,0.3-1.5,0.4-2.1c0.3-1.4,0.7-2.9,0.9-4.3c0.1-0.4-0.6-0.5-0.7-0.1c-0.2,1.6-0.7,3.2-1.2,4.7c-0.2,0.8-0.5,1.7-0.2,2.5
	c-0.6,0-1.2-0.1-1.9-0.3c0,0,0-0.1,0.1-0.1c0.1-0.2,0.1-0.4,0.2-0.6c0-0.1,0-0.2-0.1-0.2c0.1-1,0.3-2,0.5-3c0.3-1.2,0.6-2.3,0.8-3.5
	c0.1-0.4-0.6-0.6-0.7-0.2c-0.4,2.4-1.8,5-1.6,7.5c0,0,0,0,0,0c-0.6-0.2-1.2-0.4-1.8-0.6c0.2-0.4,0.3-0.8,0.4-1.3
	c0-0.2-0.3-0.3-0.4-0.2c0,0-0.1,0.1-0.1,0.1c0.1-0.8,0.4-1.8,0.6-2.5c0.3-1.3,0.6-2.6,1.1-3.8c0.2-0.4-0.5-0.6-0.7-0.2
	c-0.6,1.4-1,2.9-1.4,4.4c-0.2,0.9-0.7,2-0.5,3c-0.6-0.3-1.2-0.6-1.7-0.9c0.2-0.3,0.3-0.5,0.3-0.8c0-0.1,0-0.1-0.1-0.1
	c0.2-1.1,0.3-2.2,0.6-3.3c0.4-1.3,0.7-2.6,1.2-3.9c0.1-0.3-0.4-0.6-0.6-0.2c-0.5,1.3-0.9,2.6-1.4,3.9c-0.4,1.1-0.9,2.7-0.8,4
	c-0.5-0.3-0.9-0.6-1.3-0.9c0,0,0.1-0.1,0.1-0.1c0.2-0.3,0.3-0.7,0.4-1.1c0-0.2-0.2-0.3-0.3-0.2c0,0-0.1,0.1-0.1,0.1
	c0-0.9,0.5-1.8,0.7-2.6c0.4-1.4,1-2.9,1.5-4.3c0.1-0.4-0.4-0.5-0.6-0.2c-0.6,1.6-1.2,3.1-1.8,4.8c-0.3,0.9-0.8,2-0.6,3
	c-0.6-0.5-1.2-1-1.8-1.6c0.1,0,0.3,0,0.4-0.2c0.1-0.2,0.2-0.4,0.2-0.7c0-0.1,0-0.2-0.1-0.2c0.3-2.1,1.2-4.1,2-6
	c0.1-0.3-0.4-0.5-0.5-0.2c-0.5,1.2-1,2.4-1.5,3.7c-0.4,1.1-0.8,2.2-0.8,3.3c0,0,0,0,0,0c-0.5-0.5-1-1.1-1.4-1.7
	c0.1-0.2,0.1-0.4,0.2-0.6c0.2-0.7,0.5-1.5,0.8-2.2c0.5-1.3,0.9-2.6,1.6-3.8c0.2-0.3-0.3-0.6-0.5-0.3c-0.7,1.2-1.2,2.6-1.8,3.9
	c-0.3,0.7-0.6,1.5-0.9,2.3c0,0,0,0,0,0c-0.3-0.4-0.5-0.8-0.8-1.3c0-0.1-0.1-0.1-0.1-0.2c0.6-2.5,2.3-4.6,2.9-7.1
	c0.1-0.3-0.4-0.5-0.5-0.1c-0.6,2.2-2.1,4.1-2.9,6.2c-0.2-0.5-0.4-1-0.5-1.5c0.1-0.2,0.1-0.5,0.2-0.7c0.2-0.6,0.5-1.3,0.7-1.9
	c0.6-1.6,1.4-3.2,2.1-4.7c0.1-0.2-0.2-0.3-0.3-0.2c-0.8,1.5-1.7,2.9-2.3,4.5c-0.2,0.6-0.5,1.2-0.7,1.7c-0.1-1-0.2-1.9-0.1-2.9
	c0.3-0.7,0.8-1.4,1.2-2.1c0.8-1.3,1.4-2.6,1.8-4.1c0-0.2-0.2-0.3-0.3-0.1c-0.4,1.6-1.5,3-2.4,4.3c0,0,0,0.1-0.1,0.1
	c0.3-1.1,0.7-2.2,1.2-3.2c1-2,2.4-3.9,3.9-5.6c0.1-0.1,0.1-0.1,0.2-0.2c0.8-0.6,1.6-1.3,2.5-1.9c1.6-1.1,3.4-1.6,5.3-1.8
	c3.8-0.5,8.1,0.1,11.5,2C95.5,7.3,98.2,14,97.4,20z M85.9,67.7c-3.6-2.9-8.7-4.1-13.3-3.8c-2.5,0.2-4.9,0.7-7,2.1
	c-0.2,0.1-0.3,0.2-0.5,0.4c-0.8,0.5-1.5,1.1-2.1,1.8c-1.4,1.7-2.8,3.2-4.1,5c-2.4,3.5-3.7,7.8-2.8,12.1c1.7,7.6,9.8,13.9,17.4,14.6
	c7.8,0.8,15.4-5.4,17.8-12.6C93.7,80.6,91.6,72.2,85.9,67.7z M89.8,83.9c-0.5,3.8-2.7,7.4-5.7,10c0.1-0.4,0.1-0.7,0.2-1
	c0.3-0.8,0.6-1.5,0.8-2.3c0.1-0.4-0.5-0.6-0.7-0.2c-0.3,1.1-1.7,3-1.4,4.3c-0.4,0.3-0.9,0.6-1.4,0.9c0.1-0.3,0.2-0.6,0.3-0.9
	c0-0.1-0.1-0.2-0.2-0.3c0.2-0.7,0.3-1.4,0.5-2.1c0.1-0.4-0.5-0.6-0.7-0.2c-0.4,1.2-0.9,2.4-1,3.6c0,0.2,0,0.3,0.1,0.3
	c-0.5,0.3-1.1,0.5-1.7,0.7c0.1-0.4,0.1-0.7,0.2-1.1c0-0.2-0.3-0.2-0.3-0.1c-0.1,0.2-0.2,0.6-0.4,0.9c0.1-1.5,1.3-2.9,1.2-4.5
	c0-0.4-0.7-0.4-0.7,0c0.1,1.9-1.6,3.3-1.5,5.2c-0.3,0.1-0.7,0.1-1,0.2c-0.1,0-0.3,0-0.4,0.1c0.2-0.4,0.4-0.8,0.5-1.3
	c0-0.2-0.2-0.3-0.3-0.1c-0.2,0.3-0.3,0.5-0.5,0.8c0.1-0.7,0.3-1.4,0.5-2c0.3-1,0.6-2,0.9-3.1c0.1-0.5-0.6-0.6-0.7-0.2
	c-0.4,1.2-0.8,2.4-1.2,3.6c-0.2,0.8-0.5,1.6-0.4,2.4c-0.8,0-1.5-0.1-2.2-0.2c0,0,0,0,0,0c0.1-0.3,0.2-0.7,0.3-1
	c0-0.2-0.2-0.3-0.3-0.2c0,0,0,0,0,0c0.1-0.6,0.4-1.2,0.6-1.7c0.4-1.4,0.8-2.7,1.2-4.1c0.1-0.4-0.5-0.6-0.6-0.2
	c-0.5,1.5-0.9,3-1.5,4.4c-0.3,0.7-0.8,1.7-0.5,2.5c-0.7-0.2-1.3-0.4-2-0.6c0.1-0.3,0.2-0.6,0.3-1c0-0.1-0.1-0.3-0.3-0.2
	c0.2-0.7,0.5-1.4,0.7-2c0.4-1.4,1.1-2.6,1.3-4c0.1-0.4-0.6-0.6-0.7-0.2c-0.3,1.6-1.1,3.1-1.6,4.7c-0.2,0.7-0.7,1.5-0.7,2.3
	c-0.7-0.3-1.4-0.7-2-1c-0.2-0.1-0.3-0.2-0.5-0.3c0-0.1,0-0.2,0.1-0.3c0-0.1,0-0.2-0.1-0.2c0.3-1.5,0.8-2.7,1.4-4.1
	c0.6-1.4,1.2-2.7,1.3-4.3c0-0.4-0.6-0.4-0.6,0c-0.2,1.7-1.1,3.2-1.8,4.7c-0.5,1.1-1.2,2.3-1.2,3.6c-0.6-0.4-1.3-0.9-1.9-1.4
	c0,0,0,0,0,0c0.2-0.3,0.3-0.6,0.4-0.9c0-0.1,0-0.2-0.1-0.2c0.2-0.9,0.5-1.8,0.9-2.8c0.5-1.1,1.1-2.2,1.3-3.4
	c0.1-0.4-0.5-0.6-0.6-0.2c-0.4,1.4-1.2,2.7-1.8,4c-0.4,0.9-0.9,1.9-0.9,2.9c-1.4-1.3-2.6-2.8-3.5-4.4c0,0,0-0.1,0-0.1c0,0,0,0,0-0.1
	c0,0,0,0,0,0c1.1-2.9,2.4-5.8,4.1-8.3c0.2-0.3-0.3-0.6-0.5-0.3c-1.1,1.6-1.9,3.3-2.7,5c-0.4,0.8-0.9,1.6-1.3,2.6
	c-0.3-0.7-0.5-1.5-0.7-2.2c0.2-0.4,0.3-0.8,0.5-1.1c0.4-0.9,1-1.8,1.4-2.7c1-2,1.9-4.1,3.1-5.9c0.2-0.2-0.2-0.4-0.4-0.2
	c-1.3,1.8-2.2,3.7-3.2,5.7c-0.4,0.9-1,1.7-1.4,2.6c-0.1,0.2-0.2,0.3-0.2,0.5c-0.1-1-0.1-2,0.1-3.1c0.7-1.2,1.5-2.3,2.2-3.5
	c0.7-1.1,1.4-2.1,2.1-3.2c0.7-1.1,1.2-2.3,1.8-3.5c0.1-0.1-0.1-0.3-0.2-0.1c-1.1,2.4-2.9,4.6-4.4,6.9c-0.3,0.5-0.6,0.9-0.9,1.4
	c0.2-0.8,0.6-1.6,1-2.4c1-2,2.4-3.9,3.9-5.6c0.1-0.1,0.1-0.1,0.2-0.2c0.8-0.6,1.6-1.3,2.5-1.9c1.6-1.1,3.4-1.6,5.3-1.8
	c3.8-0.5,8.1,0.1,11.5,2C88,71.2,90.7,77.9,89.8,83.9z"/>
</svg>
