<?xml version="1.0" encoding="utf-8"?>
<!-- Generator: Adobe Illustrator 27.2.0, SVG Export Plug-In . SVG Version: 6.00 Build 0)  -->
<svg version="1.1" id="Tryb_izolacji" xmlns="http://www.w3.org/2000/svg" xmlns:xlink="http://www.w3.org/1999/xlink" x="0px"
	 y="0px" viewBox="0 0 50 50" style="enable-background:new 0 0 50 50;" xml:space="preserve">
<path style="fill:#FFFFFF;" d="M12.9,18.2c0.9-0.9,1.9-1.7,3-2.3c6-3.3,13.7-1.6,17.6,4.3l-4.7,4.7c-1.3-3.1-4.7-4.8-8-4.1
	c-1.2,0.3-2.4,0.9-3.4,1.9l-9,9c-2.7,2.7-2.7,7.2,0,9.9c2.7,2.7,7.2,2.7,9.9,0l2.8-2.8c2.5,1,5.2,1.4,7.9,1.2l-6.1,6.1
	c-5.2,5.2-13.7,5.2-18.9,0s-5.2-13.7,0-18.9L12.9,18.2z M27.1,3.9L21,10c2.7-0.2,5.4,0.2,7.9,1.2l2.8-2.8c2.7-2.7,7.2-2.7,9.9,0
	c2.7,2.7,2.7,7.2,0,9.9l-9,9c-2.7,2.7-7.2,2.7-9.9,0c-0.6-0.6-1.2-1.4-1.5-2.2l-4.7,4.7c0.5,0.7,1,1.4,1.7,2c1.7,1.7,3.8,3,6.3,3.5
	c3.2,0.8,6.7,0.3,9.6-1.3c1.1-0.6,2.1-1.3,3-2.3l9-9c5.2-5.2,5.2-13.7,0-18.9C40.8-1.3,32.4-1.3,27.1,3.9z"/>
</svg>
