<?xml version="1.0" encoding="utf-8"?>
<!-- Generator: Adobe Illustrator 27.2.0, SVG Export Plug-In . SVG Version: 6.00 Build 0)  -->
<svg version="1.1" id="Tryb_izolacji" xmlns="http://www.w3.org/2000/svg" xmlns:xlink="http://www.w3.org/1999/xlink" x="0px"
	 y="0px" viewBox="0 0 50 50" style="enable-background:new 0 0 50 50;" xml:space="preserve">
<path style="fill:#FFFFFF;" d="M50,9.5c-1.8,0.8-3.8,1.4-5.9,1.6c2.1-1.3,3.7-3.3,4.5-5.7c-2,1.2-4.2,2-6.5,2.5
	c-1.9-2-4.5-3.2-7.5-3.2c-6.6,0-11.5,6.2-10,12.6C16.1,16.9,8.5,12.8,3.5,6.6c-2.7,4.6-1.4,10.6,3.2,13.7C5,20.2,3.4,19.7,2,19
	c-0.1,4.8,3.3,9.2,8.2,10.2c-1.4,0.4-3,0.5-4.6,0.2c1.3,4.1,5.1,7,9.6,7.1c-4.3,3.4-9.7,4.9-15.2,4.2c4.5,2.9,9.9,4.6,15.7,4.6
	c19,0,29.8-16.1,29.2-30.5C46.9,13.4,48.6,11.5,50,9.5z"/>
</svg>
