<?xml version="1.0" encoding="utf-8"?>
<!-- Generator: Adobe Illustrator 27.2.0, SVG Export Plug-In . SVG Version: 6.00 Build 0)  -->
<svg version="1.1" id="Tryb_izolacji" xmlns="http://www.w3.org/2000/svg" xmlns:xlink="http://www.w3.org/1999/xlink" x="0px"
	 y="0px" viewBox="0 0 50 50" style="enable-background:new 0 0 50 50;" xml:space="preserve">
<path style="fill:#FFFFFF;" d="M0.1,50l3.5-12.8c-2.2-3.8-3.3-8-3.3-12.4C0.3,11.1,11.4,0,25.1,0C31.7,0,38,2.6,42.6,7.3
	c4.7,4.7,7.3,10.9,7.2,17.5c0,13.7-11.1,24.8-24.8,24.8c-4.1,0-8.2-1-11.9-3C13.3,46.6,0.1,50,0.1,50z M13.9,42.1
	c3.5,2.1,6.8,3.3,11.2,3.3c11.3,0,20.6-9.2,20.6-20.6c0-11.4-9.2-20.6-20.6-20.6c-11.4,0-20.6,9.2-20.6,20.6c0,4.6,1.4,8.1,3.6,11.7
	l-2.1,7.6C6.1,44.1,13.9,42.1,13.9,42.1z M37.6,30.7c-0.2-0.3-0.6-0.4-1.2-0.7c-0.6-0.3-3.7-1.8-4.2-2c-0.6-0.2-1-0.3-1.4,0.3
	c-0.4,0.6-1.6,2-2,2.4c-0.4,0.4-0.7,0.5-1.3,0.2c-0.6-0.3-2.6-1-5-3.1c-1.8-1.6-3.1-3.7-3.4-4.3c-0.4-0.6,0-1,0.3-1.3
	c0.3-0.3,0.6-0.7,0.9-1.1c0.3-0.4,0.4-0.6,0.6-1c0.2-0.4,0.1-0.8-0.1-1.1c-0.2-0.3-1.4-3.4-1.9-4.6c-0.5-1.2-1-1-1.4-1.1l-1.2,0
	c-0.4,0-1.1,0.2-1.6,0.8c-0.6,0.6-2.2,2.1-2.2,5.2s2.2,6,2.5,6.4c0.3,0.4,4.4,6.7,10.6,9.3c1.5,0.6,2.6,1,3.5,1.3
	c1.5,0.5,2.8,0.4,3.9,0.2c1.2-0.2,3.7-1.5,4.2-2.9C37.7,32.2,37.7,30.9,37.6,30.7z"/>
</svg>
